<?xml version="1.0" standalone="no"?>
<!DOCTYPE svg PUBLIC "-//W3C//DTD SVG 20010904//EN"
 "http://www.w3.org/TR/2001/REC-SVG-20010904/DTD/svg10.dtd">
<svg version="1.0" xmlns="http://www.w3.org/2000/svg"
 width="512.000000pt" height="512.000000pt" viewBox="0 0 512.000000 512.000000"
 preserveAspectRatio="xMidYMid meet">

<g transform="translate(0.000000,512.000000) scale(0.100000,-0.100000)"
fill="currentColor" stroke="none">
<path d="M1070 4231 c-80 -26 -146 -88 -173 -162 -44 -121 -557 -1860 -557
-1889 0 -99 58 -176 177 -234 l79 -38 -4 -112 c-10 -256 76 -470 262 -651 504
-490 1369 -261 1547 410 30 115 31 290 0 404 -17 66 -64 180 -98 242 -9 15
158 43 257 43 98 0 266 -29 257 -43 -31 -55 -83 -179 -99 -239 -29 -110 -29
-297 1 -407 43 -161 123 -296 242 -411 90 -86 146 -124 253 -175 448 -210 998
-29 1221 401 72 140 90 219 90 392 l0 146 79 39 c118 57 176 134 176 234 0 28
-530 1823 -562 1904 -18 43 -75 103 -122 128 -64 34 -165 31 -234 -7 -92 -51
-132 -127 -132 -252 0 -67 2 -74 26 -93 33 -26 55 -26 85 -3 19 16 23 32 28
99 6 85 16 105 62 129 65 33 137 3 163 -68 29 -80 546 -1819 546 -1838 0 -44
-25 -72 -91 -106 l-68 -34 -10 33 c-22 67 -105 192 -179 269 -123 129 -272
217 -448 264 -107 29 -370 27 -478 -4 -154 -44 -288 -119 -404 -227 l-60 -55
-43 16 c-169 60 -429 60 -598 0 l-43 -16 -60 55 c-116 107 -249 182 -404 227
-68 20 -102 23 -244 23 -176 0 -236 -10 -363 -62 -207 -84 -409 -277 -487
-466 l-23 -56 -67 34 c-65 33 -90 62 -90 105 0 19 517 1759 546 1838 22 58 63
85 123 79 71 -8 94 -39 102 -139 5 -68 9 -84 28 -100 30 -24 52 -23 86 3 26
21 27 24 23 108 -5 123 -47 194 -142 243 -43 22 -136 32 -176 19z m685 -1775
c378 -122 601 -498 513 -866 -16 -69 -80 -198 -131 -267 -63 -85 -165 -166
-272 -218 -113 -55 -184 -74 -307 -82 -353 -23 -674 182 -793 507 -37 100 -46
270 -20 384 68 308 353 547 685 575 109 9 233 -4 325 -33z m2074 9 c265 -69
486 -292 547 -550 24 -106 16 -275 -20 -380 -111 -324 -438 -534 -794 -512
-340 22 -623 245 -708 557 -24 88 -24 262 -1 350 53 200 205 383 402 482 161
82 386 103 574 53z"/>
</g>
</svg>
