<svg width="24.000000" height="24.000000" viewBox="0 0 24 24" fill="none" xmlns="http://www.w3.org/2000/svg">
  <path id="Vector"
    d="M12 4.75C13.7695 4.75 15.3535 5.35999 16.6035 6.55005L20.0293 3.125C17.9492 1.18994 15.2344 0 12 0C7.30859 0 3.25391 2.68994 1.2793 6.60999L5.26953 9.70496C6.21484 6.85999 8.86914 4.75 12 4.75Z"
    fill="#EA4335" fill-opacity="1.000000" fill-rule="nonzero" />
  <path id="Vector"
    d="M23.4902 12.275C23.4902 11.49 23.4141 10.73 23.3008 10L12 10L12 14.51L18.4707 14.51C18.1797 15.99 17.3398 17.25 16.0801 18.1L19.9453 21.1C22.1992 19.01 23.4902 15.92 23.4902 12.275Z"
    fill="#4285F4" fill-opacity="1.000000" fill-rule="nonzero" />
  <path id="Vector"
    d="M5.26562 14.295C5.02539 13.5699 4.88477 12.7999 4.88477 12C4.88477 11.2 5.01953 10.4299 5.26562 9.70496L1.27539 6.60999C0.460938 8.22998 0 10.0599 0 12C0 13.9399 0.460938 15.77 1.2793 17.39L5.26562 14.295Z"
    fill="#FBBC05" fill-opacity="1.000000" fill-rule="nonzero" />
  <path id="Vector"
    d="M12 24C15.2402 24 17.9648 22.9351 19.9453 21.0951L16.0801 18.0951C15.0059 18.8201 13.6211 19.245 12 19.245C8.87109 19.245 6.21484 17.135 5.26562 14.29L1.27539 17.385C3.25586 21.3101 7.31055 24 12 24Z"
    fill="#34A853" fill-opacity="1.000000" fill-rule="nonzero" />
</svg>